HIERARCHY
ROOT Hips
{
	OFFSET -0.001795 -0.223333 0.028219
	CHANNELS 6 Xposition Yposition Zposition Zrotation Yrotation Xrotation 
	JOINT LeftUpLeg
	{
		OFFSET 0.069520 -0.091406 -0.006815
		CHANNELS 3 Zrotation Yrotation Xrotation
		JOINT LeftLeg
		{
			OFFSET 0.034277 -0.375199 -0.004496
			CHANNELS 3 Zrotation Yrotation Xrotation
			JOINT LeftFoot
			{
				OFFSET -0.013596 -0.397961 -0.043693
				CHANNELS 3 Zrotation Yrotation Xrotation
				JOINT LeftToe
				{
					OFFSET 0.026358 -0.055791 0.119288
					CHANNELS 3 Zrotation Yrotation Xrotation
					End Site
					{
						OFFSET 0.000000 0.000000 0.000000
					}
				}
			}
		}
	}
	JOINT RightUpLeg
	{
		OFFSET -0.067670 -0.090522 -0.004320
		CHANNELS 3 Zrotation Yrotation Xrotation
		JOINT RightLeg
		{
			OFFSET -0.038290 -0.382569 -0.008850
			CHANNELS 3 Zrotation Yrotation Xrotation
			JOINT RightFoot
			{
				OFFSET 0.015774 -0.398415 -0.042312
				CHANNELS 3 Zrotation Yrotation Xrotation
				JOINT RightToe
				{
					OFFSET -0.025372 -0.048144 0.123348
					CHANNELS 3 Zrotation Yrotation Xrotation
					End Site
					{
						OFFSET 0.000000 0.000000 0.000000
					}
				}
			}
		}
	}
	JOINT Spine
	{
		OFFSET -0.002533 0.108963 -0.026696
		CHANNELS 3 Zrotation Yrotation Xrotation
		JOINT Spine1
		{
			OFFSET 0.005487 0.135180 0.001092
			CHANNELS 3 Zrotation Yrotation Xrotation
			JOINT Spine2
			{
				OFFSET 0.001457 0.052922 0.025425
				CHANNELS 3 Zrotation Yrotation Xrotation
				JOINT Neck
				{
					OFFSET -0.002778 0.213870 -0.042857
					CHANNELS 3 Zrotation Yrotation Xrotation
					JOINT Head
					{
						OFFSET 0.005152 0.064970 0.051349
						CHANNELS 3 Zrotation Yrotation Xrotation
						End Site
						{
							OFFSET 0.000000 0.000000 0.000000
						}
					}
				}
				JOINT LeftShoulder
				{
					OFFSET 0.078845 0.121749 -0.034090
					CHANNELS 3 Zrotation Yrotation Xrotation
					JOINT LeftArm
					{
						OFFSET 0.090977 0.030469 -0.008868
						CHANNELS 3 Zrotation Yrotation Xrotation
						JOINT LeftForeArm
						{
							OFFSET 0.259612 -0.012772 -0.027456
							CHANNELS 3 Zrotation Yrotation Xrotation
							JOINT LeftHand
							{
								OFFSET 0.249234 0.008986 -0.001171
								CHANNELS 3 Zrotation Yrotation Xrotation
								End Site
								{
									OFFSET 0.000000 0.000000 0.000000
								}
							}
						}
					}
				}
				JOINT RightShoulder
				{
					OFFSET -0.081759 0.118833 -0.038615
					CHANNELS 3 Zrotation Yrotation Xrotation
					JOINT RightArm
					{
						OFFSET -0.096012 0.032551 -0.009143
						CHANNELS 3 Zrotation Yrotation Xrotation
						JOINT RightForeArm
						{
							OFFSET -0.253742 -0.013329 -0.021401
							CHANNELS 3 Zrotation Yrotation Xrotation
							JOINT RightHand
							{
								OFFSET -0.255298 0.007772 -0.005559
								CHANNELS 3 Zrotation Yrotation Xrotation
								End Site
								{
									OFFSET 0.000000 0.000000 0.000000
								}
							}
						}
					}
				}
			}
		}
	}
}
MOTION
Frames: 14
Frame Time: 0.050000
0.000000 0.695328 0.000000 -1.774715 -0.435833 17.767294 15.210763 -2.646062 52.907741 -22.636314 -10.852559 -79.210981 62.156335 32.779464 99.564815 0.000000 0.000000 0.000000 -28.551605 8.033859 39.687304 33.017837 16.581130 -77.504032 -94.403412 -40.625953 110.305234 0.000000 0.000000 0.000000 4.107838 1.511925 -22.876678 -1.220295 1.483496 -63.364010 -1.793693 0.990116 73.161081 10.148106 2.414526 -94.091188 0.000000 0.000000 0.000000 -18.905116 10.010299 -3.990334 -49.918225 -14.734694 -11.150794 -88.416345 76.182943 -62.881374 0.000000 0.000000 0.000000 2.595118 -19.813574 -9.260463 37.442038 -22.436551 -16.692653 -105.199422 -46.288606 63.930276 0.000000 0.000000 0.000000 
-0.001820 0.690784 0.000350 -1.496798 1.226240 18.312384 15.354628 -3.300507 51.173921 -20.371872 -9.765424 -78.985222 66.488487 32.862521 101.446173 0.000000 0.000000 0.000000 -27.858849 7.273011 40.281384 32.457109 15.753687 -77.978917 -99.307054 -42.870271 109.685539 0.000000 0.000000 0.000000 4.702096 1.595844 -24.951366 -5.689895 0.612349 -63.410622 2.262751 -1.187411 74.847455 -3.723700 2.790382 -92.717964 0.000000 0.000000 0.000000 -19.550258 8.132552 -2.784565 -48.081149 -19.004718 -10.128529 -88.534416 74.199344 -61.484293 0.000000 0.000000 0.000000 2.104494 -21.456679 -10.265685 36.862417 -30.151991 -18.898170 -93.413362 -45.910134 53.089856 0.000000 0.000000 0.000000 
-0.003461 0.691126 0.001259 -1.307935 1.101118 17.692270 15.458595 -3.417765 53.200811 -20.731355 -10.026146 -78.998597 61.126767 32.683550 98.814462 0.000000 0.000000 0.000000 -28.603804 7.767017 41.598878 32.414707 16.276358 -79.457519 -94.545385 -41.946484 108.830498 0.000000 0.000000 0.000000 3.658051 1.662632 -27.867516 -1.973815 1.082677 -60.853350 -1.252969 0.650389 76.286696 -0.160517 2.503959 -91.276380 0.000000 0.000000 0.000000 -21.507672 10.396705 -4.148843 -46.863905 -19.506094 -10.870252 -84.063005 74.938790 -57.247871 0.000000 0.000000 0.000000 3.210506 -18.975903 -8.959703 32.906876 -31.215506 -17.581622 -86.793637 -48.185243 47.938643 0.000000 0.000000 0.000000 
-0.005438 0.687476 0.001804 -1.017349 2.338679 17.782029 15.398209 -3.913708 53.499807 -19.974674 -9.956369 -79.302649 62.077877 31.894476 100.996481 0.000000 0.000000 0.000000 -28.784143 7.434887 42.080141 31.470856 15.785818 -81.381808 -97.454749 -39.827682 112.819375 0.000000 0.000000 0.000000 3.433368 1.533523 -28.871591 -3.822226 0.683736 -61.360479 0.296497 -0.505581 78.456874 -2.797854 2.751254 -89.880755 0.000000 0.000000 0.000000 -21.731361 10.692391 -4.263116 -47.487009 -21.858807 -10.636506 -84.884881 75.445584 -57.351497 0.000000 0.000000 0.000000 0.530256 -21.318388 -10.398352 33.157263 -34.188806 -18.489060 -79.976753 -43.227385 39.534319 0.000000 0.000000 0.000000 
-0.007486 0.689251 0.002618 -1.206200 3.575376 17.154479 14.845192 -4.077009 53.124738 -17.881996 -9.062495 -79.639054 62.754555 32.109893 100.594430 0.000000 0.000000 0.000000 -27.930119 6.661496 42.657055 31.262861 15.791622 -82.948369 -97.096363 -40.782997 111.586540 0.000000 0.000000 0.000000 3.540125 1.480486 -30.323265 -4.319682 0.573893 -58.528553 -0.332584 -0.567127 77.310693 -0.207247 2.366269 -90.451541 0.000000 0.000000 0.000000 -21.260608 10.885762 -4.408265 -48.056080 -19.413153 -11.635586 -95.762522 74.488174 -65.852566 0.000000 0.000000 0.000000 0.162948 -21.323319 -10.455461 31.898101 -37.099729 -18.341485 -74.379174 -41.161300 33.950436 0.000000 0.000000 0.000000 
-0.009181 0.688399 0.003333 -1.784476 3.143992 17.337082 14.133494 -3.508730 53.324005 -15.853885 -7.682368 -80.291602 62.976950 31.900040 101.216242 0.000000 0.000000 0.000000 -28.164979 6.805452 41.575048 31.540434 15.900214 -82.401499 -98.427309 -41.868950 110.799079 0.000000 0.000000 0.000000 3.780377 1.663157 -31.775310 -3.916386 0.672798 -58.811970 0.219961 -0.386093 78.949814 -3.719237 2.843138 -90.540992 0.000000 0.000000 0.000000 -21.084368 11.912464 -5.006881 -49.682718 -18.033172 -12.801974 -114.630130 76.435196 -84.490453 0.000000 0.000000 0.000000 -1.397060 -21.886705 -10.933542 31.895470 -40.026145 -19.276232 -69.214566 -37.092699 28.222049 0.000000 0.000000 0.000000 
-0.010655 0.689782 0.003485 -1.709470 3.806289 17.570486 14.386580 -3.854974 52.397061 -15.600522 -7.655551 -79.995921 64.096355 31.781815 101.937102 0.000000 0.000000 0.000000 -27.721454 6.403422 41.632343 31.494615 15.830098 -83.071377 -97.873341 -41.647781 110.854979 0.000000 0.000000 0.000000 3.833164 1.635569 -32.975474 -4.426491 0.626856 -56.805213 0.119230 -0.498841 77.761728 -2.716299 2.714180 -90.230826 0.000000 0.000000 0.000000 -20.619424 12.507234 -5.486476 -51.317489 -15.181203 -13.746474 -126.697039 79.198925 -99.734241 0.000000 0.000000 0.000000 -1.967858 -22.313796 -11.143194 32.058474 -41.858627 -19.497976 -65.587206 -33.626136 24.115511 0.000000 0.000000 0.000000 
-0.012270 0.690379 0.002950 -1.866963 3.568440 18.146318 14.388580 -3.710373 51.662833 -15.174628 -7.250530 -79.888496 65.278523 32.051338 101.958775 0.000000 0.000000 0.000000 -27.334223 6.234470 40.438591 31.495664 15.729642 -82.776455 -100.248784 -42.148573 111.223632 0.000000 0.000000 0.000000 4.163775 1.757639 -33.385193 -5.465876 0.557789 -57.304664 0.920792 -1.599578 78.576508 -4.375118 2.880226 -90.931234 0.000000 0.000000 0.000000 -21.425649 12.937308 -5.415909 -51.180476 -13.922403 -14.697011 -136.217728 80.740750 -110.223533 0.000000 0.000000 0.000000 -3.193708 -23.188270 -11.738380 31.964694 -42.239636 -19.773476 -62.942987 -30.308741 20.663183 0.000000 0.000000 0.000000 
-0.013897 0.690661 0.001727 -2.044936 3.233006 18.839993 14.451376 -3.562029 50.771366 -14.769271 -6.837800 -79.857121 65.598690 31.715413 102.877044 0.000000 0.000000 0.000000 -27.035236 6.140810 39.349196 31.246194 15.609372 -82.858528 -102.521223 -42.585329 111.625021 0.000000 0.000000 0.000000 4.384052 1.860282 -33.561353 -4.920536 0.619806 -57.774878 0.122214 -1.453524 79.155320 -2.678662 2.645953 -91.589159 0.000000 0.000000 0.000000 -21.889848 13.590206 -5.704251 -51.354627 -12.805781 -15.383327 -144.194870 83.084669 -120.352429 0.000000 0.000000 0.000000 -3.826462 -23.807726 -12.178620 32.101591 -42.200454 -19.879265 -62.372393 -25.997069 17.866942 0.000000 0.000000 0.000000 
-0.015425 0.689726 0.000287 -2.227252 2.856132 19.250790 14.618133 -3.489941 50.541362 -14.990415 -6.867765 -80.237385 66.981692 31.903273 103.267002 0.000000 0.000000 0.000000 -27.166271 6.283960 38.787679 31.491318 15.947230 -83.103788 -103.251135 -42.270540 112.247905 0.000000 0.000000 0.000000 4.517317 1.934559 -33.333108 -5.296839 0.576246 -58.806549 0.609029 -2.358065 80.364579 -4.428629 2.845734 -92.856893 0.000000 0.000000 0.000000 -22.183618 13.377983 -5.166599 -50.909260 -12.479753 -15.829814 -133.538021 84.437181 -109.659313 0.000000 0.000000 0.000000 -4.964066 -24.666446 -12.728297 32.258633 -42.343846 -20.162645 -62.309782 -22.863852 15.827128 0.000000 0.000000 0.000000 
-0.016374 0.688370 -0.000985 -2.433554 2.119997 19.508530 14.790118 -3.303641 50.512729 -15.433049 -6.889610 -80.142047 67.037066 32.105196 103.009645 0.000000 0.000000 0.000000 -27.754380 6.696795 38.166679 32.512523 16.717830 -82.537768 -103.069247 -43.173176 111.116576 0.000000 0.000000 0.000000 4.512594 2.007447 -32.720560 -3.999965 0.806824 -58.259126 -0.010992 -1.938951 79.121383 -2.950957 2.704813 -92.164038 0.000000 0.000000 0.000000 -22.213556 13.442209 -5.321364 -49.924588 -11.857839 -15.432515 -103.285217 84.760156 -80.844185 0.000000 0.000000 0.000000 -5.364005 -25.176027 -12.847585 32.033586 -41.982349 -19.552392 -63.674021 -21.346716 15.180077 0.000000 0.000000 0.000000 
-0.016535 0.687360 -0.002183 -2.581337 0.964766 19.716970 14.082141 -2.502224 50.755838 -15.488342 -6.583488 -80.146905 67.329272 32.206542 103.144041 0.000000 0.000000 0.000000 -28.780205 7.435132 37.672526 33.092740 17.378596 -82.158518 -101.044061 -43.037241 110.376833 0.000000 0.000000 0.000000 4.856961 2.224919 -32.281331 -2.382215 1.094699 -58.015979 -0.184500 -0.746072 78.015210 -2.140521 2.648642 -90.933061 0.000000 0.000000 0.000000 -20.630243 12.940220 -5.224135 -49.670732 -11.338608 -14.851771 -81.114947 83.478487 -59.711039 0.000000 0.000000 0.000000 -6.736570 -25.657041 -12.796620 31.650610 -42.089176 -18.748622 -65.445663 -20.234968 15.072184 0.000000 0.000000 0.000000 
-0.015602 0.686564 -0.003651 -2.721042 0.030362 19.512841 13.357338 -1.780060 51.297141 -15.506370 -6.336167 -80.001094 68.221641 32.553530 103.020292 0.000000 0.000000 0.000000 -29.942601 8.128416 37.143325 33.679804 17.970338 -81.754625 -99.431311 -43.162790 109.481622 0.000000 0.000000 0.000000 5.120201 2.286855 -30.784057 -0.677662 1.377502 -58.871900 -0.513782 0.460647 77.603113 -0.900169 2.522817 -90.201560 0.000000 0.000000 0.000000 -19.940963 12.445799 -5.094311 -47.713610 -11.244485 -14.322544 -62.851254 80.421411 -42.426539 0.000000 0.000000 0.000000 -6.953889 -25.802088 -12.766884 31.326562 -42.033131 -18.290316 -67.557240 -21.314919 16.338031 0.000000 0.000000 0.000000 
-0.013477 0.686588 -0.005673 -2.509723 0.006154 19.673150 12.745994 -1.454847 51.278226 -15.571636 -6.447273 -80.277109 67.494855 32.707052 102.330615 0.000000 0.000000 0.000000 -30.543235 8.365846 37.066050 33.809214 18.023103 -81.758147 -98.019927 -42.372722 109.802373 0.000000 0.000000 0.000000 4.916971 2.162865 -29.847163 0.493109 1.525410 -60.038440 -0.454287 0.710323 77.532593 -2.798737 2.839111 -90.440931 0.000000 0.000000 0.000000 -19.644210 12.050142 -4.982012 -46.441447 -11.603692 -13.788778 -51.628887 77.929425 -32.508660 0.000000 0.000000 0.000000 -7.764431 -25.732769 -12.631620 31.150738 -40.821440 -17.710914 -71.932134 -22.660946 18.937322 0.000000 0.000000 0.000000 
